<?xml version="1.0" encoding="utf-8"?>
<!-- Generator: Adobe Illustrator 15.0.2, SVG Export Plug-In . SVG Version: 6.00 Build 0)  -->
<!DOCTYPE svg PUBLIC "-//W3C//DTD SVG 1.1//EN" "http://www.w3.org/Graphics/SVG/1.1/DTD/svg11.dtd">
<svg version="1.1" id="Layer_1" xmlns="http://www.w3.org/2000/svg" xmlns:xlink="http://www.w3.org/1999/xlink" x="0px" y="0px"
	 width="512px" height="509.305px" viewBox="0 0 512 509.305" enable-background="new 0 0 512 509.305" xml:space="preserve">
<g>
	<rect x="275.873" y="26.524" width="71.622" height="148.544"/>
	<path d="M506.562,41.53l0.04-0.041L470.551,5.432C467.531,2.118,463.221,0,458.377,0c-0.095,0-0.176,0.027-0.277,0.027h-61.643
		c-0.088,0-0.169,0-0.264,0h-0.96v0.166c-1.979,0.203-3.904,0.889-5.391,2.382c-1.486,1.486-2.176,3.412-2.372,5.388h-0.195v175.075
		h-0.062c-0.324,8.834-7.533,15.914-16.451,15.914h-2.054H132.406v-0.084c-8.536-0.43-15.322-7.264-15.627-15.83h-0.061V7.962
		h-0.334c-0.352-1.837-1.092-3.638-2.537-5.084c-2.152-2.152-5.01-2.952-7.742-2.675V0.007H16.512l0,0h-0.007
		C7.388,0.007-0.007,7.395,0,16.529l0,0v182.422v66.312v227.516v0.014c-0.007,9.121,7.381,16.513,16.512,16.513l0,0h52.374v-16.526
		l0,0V281.552l0,0v-0.014v-0.364v-0.23h0.061c0.284-7.756,5.888-14.154,13.282-15.6v-0.088h0.916
		c0.746-0.108,1.486-0.223,2.253-0.223h0.007h341.07l0,0l0,0h0.594v0.061c8.648,0.311,15.553,7.209,15.863,15.85h0.055v228.361
		h52.454l0,0c9.121,0,16.513-7.392,16.513-16.513v-0.014l0,0V54.218c0.006-0.172,0.047-0.331,0.047-0.503
		C512,48.864,509.886,44.546,506.562,41.53z"/>
</g>
</svg>
